<?xml version="1.0" standalone="no"?>
<!DOCTYPE svg PUBLIC "-//W3C//DTD SVG 20010904//EN"
 "http://www.w3.org/TR/2001/REC-SVG-20010904/DTD/svg10.dtd">
<svg version="1.0" xmlns="http://www.w3.org/2000/svg"
 width="597.000000pt" height="597.000000pt" viewBox="0 0 597.000000 597.000000"
 preserveAspectRatio="xMidYMid meet">
<metadata>
Created by potrace 1.11, written by Peter Selinger 2001-2013
</metadata>
<g transform="translate(0.000000,597.000000) scale(0.100000,-0.100000)"
fill="#000000" stroke="none">
<path d="M2730 5960 c-173 -20 -190 -23 -320 -47 -58 -10 -230 -56 -314 -84
-735 -242 -1332 -758 -1696 -1464 -130 -253 -242 -589 -285 -860 -9 -55 -18
-111 -20 -124 -27 -153 -27 -614 1 -801 64 -434 197 -811 412 -1170 45 -75
187 -280 220 -316 9 -11 42 -49 72 -84 116 -138 220 -238 413 -400 197 -164
219 -178 487 -305 261 -124 538 -220 720 -250 19 -3 58 -10 85 -15 229 -44
626 -48 880 -11 338 50 585 131 924 303 205 104 314 172 421 264 36 31 88 75
115 97 28 22 109 100 180 172 481 487 778 1121 852 1820 10 95 11 495 1 580
-16 145 -21 177 -44 295 -14 69 -27 135 -30 147 -16 79 -84 290 -131 408 -157
393 -370 713 -678 1020 -218 217 -471 398 -748 536 -302 150 -586 234 -962
285 -67 9 -486 12 -555 4z m207 -16 c-3 -3 -12 -4 -19 -1 -8 3 -5 6 6 6 11 1
17 -2 13 -5z m278 -8 c446 -40 872 -181 1249 -414 223 -137 394 -277 606 -496
l54 -56 -39 -41 c-39 -39 -138 -110 -201 -142 l-31 -16 -69 87 c-68 86 -281
307 -359 371 -92 76 -245 188 -336 246 l-99 63 71 52 c64 48 88 74 78 85 -3 2
-36 -21 -74 -51 -39 -30 -78 -57 -88 -60 -11 -3 -77 24 -173 71 -249 123 -502
217 -728 272 -61 14 -114 29 -119 33 -8 7 162 4 258 -4z m-589 -32 c-213 -59
-414 -138 -616 -243 l-115 -60 -22 32 c-31 45 -36 62 -21 74 46 37 395 147
578 183 222 43 326 50 196 14z m220 -22 c5 -62 18 -403 18 -472 l1 -75 -120 1
c-145 1 -325 19 -325 32 0 10 109 210 142 258 69 105 163 209 238 267 38 29
43 28 46 -11z m186 -93 c81 -82 156 -182 227 -304 70 -120 72 -125 64 -126 -5
0 -17 -2 -28 -4 -67 -10 -136 -16 -262 -22 l-143 -6 -1 99 c0 54 -2 126 -4
159 -1 33 -6 122 -9 198 l-7 139 48 -33 c26 -18 78 -63 115 -100z m-330 49
c-109 -113 -187 -224 -262 -376 l-45 -91 -35 5 c-56 9 -197 53 -257 80 l-55
25 29 27 c45 42 207 159 290 211 111 68 343 178 382 180 8 1 -13 -27 -47 -61z
m319 38 c164 -61 307 -141 464 -256 112 -83 208 -171 198 -181 -14 -13 -324
-85 -329 -76 0 1 -20 38 -43 82 -90 169 -189 299 -310 408 -29 26 -51 47 -48
47 2 0 33 -11 68 -24z m-441 -11 c0 -3 -33 -21 -72 -40 -124 -58 -349 -208
-438 -292 -19 -18 -40 -33 -46 -33 -13 0 -104 68 -104 78 0 11 200 113 315
162 75 32 251 98 343 129 1 1 2 -1 2 -4z m710 -47 c69 -22 181 -63 250 -90
128 -52 374 -171 384 -186 4 -7 -127 -70 -179 -86 -15 -4 -32 4 -61 32 -142
132 -278 228 -467 329 -113 60 -108 60 73 1z m-1470 -141 c0 -7 12 -30 27 -52
25 -36 25 -40 8 -49 -258 -153 -566 -426 -740 -658 -43 -56 -79 -105 -81 -107
-7 -7 -74 61 -106 107 -60 86 -59 88 55 201 223 219 444 378 717 518 112 57
120 60 120 40z m150 -177 c3 0 12 -5 20 -10 12 -8 5 -20 -41 -67 -177 -182
-330 -400 -451 -640 -41 -81 -77 -154 -79 -161 -11 -32 -359 135 -359 172 0 6
25 45 57 86 185 246 444 482 704 644 l72 45 36 -35 c20 -18 38 -34 41 -34z
m2110 -49 c258 -164 485 -365 680 -604 l71 -87 -73 -34 c-85 -39 -244 -94
-377 -130 l-93 -25 -26 62 c-115 270 -287 544 -466 742 -50 55 -54 65 -28 66
9 0 53 18 97 39 44 21 86 39 93 39 7 1 62 -30 122 -68z m-1965 -25 c44 -19
121 -45 170 -58 50 -12 91 -23 93 -24 2 -1 -8 -28 -21 -60 -79 -189 -159 -461
-213 -727 l-18 -89 -51 6 c-27 4 -75 9 -105 12 -30 3 -58 7 -61 9 -3 2 -28 7
-55 10 -108 14 -414 88 -414 100 0 11 110 231 151 302 65 113 161 252 232 338
63 75 196 215 206 215 3 0 41 -15 86 -34z m1656 -63 c30 -32 73 -80 94 -108
22 -27 43 -52 46 -55 14 -12 131 -192 176 -270 84 -146 178 -356 164 -364 -4
-3 -23 -8 -42 -11 -19 -3 -54 -10 -79 -15 -120 -27 -385 -63 -464 -65 l-29 0
-47 195 c-26 107 -61 238 -78 290 -36 112 -115 319 -133 348 -16 25 -11 31 27
38 97 16 194 39 269 63 17 5 33 10 36 10 3 1 30 -25 60 -56z m-1271 -37 c66
-9 152 -15 264 -21 55 -3 100 -6 102 -8 1 -1 4 -196 6 -432 l3 -430 -110 1
c-119 1 -414 12 -510 20 -83 6 -105 12 -100 27 2 6 6 26 9 42 28 190 144 585
222 763 20 45 26 52 46 48 13 -3 43 -7 68 -10z m858 -33 c61 -119 145 -370
201 -598 60 -245 58 -223 19 -229 -63 -11 -311 -24 -580 -30 l-98 -3 -1 226
c0 124 -1 320 -2 435 l-2 210 70 2 c84 2 279 14 282 18 1 1 23 3 47 5 43 2 46
0 64 -36z m-2473 -354 c15 -28 50 -75 78 -104 l52 -54 -49 -78 c-107 -170
-207 -385 -271 -583 -16 -47 -29 -87 -31 -89 -5 -6 -95 68 -147 122 -27 27
-65 74 -84 103 l-36 54 66 120 c85 154 177 294 278 420 87 109 112 140 116
140 1 0 14 -23 28 -51z m4414 -194 c43 -60 97 -141 120 -178 53 -86 161 -290
161 -303 0 -19 -106 -116 -190 -173 -113 -77 -149 -96 -155 -79 -3 7 -21 58
-40 113 -50 138 -180 400 -259 519 -36 55 -66 101 -66 102 0 1 38 24 84 53 46
28 105 73 132 101 l49 50 43 -48 c23 -26 78 -96 121 -157z m-4206 -14 c54 -36
142 -80 235 -116 55 -22 72 -33 68 -44 -2 -9 -27 -81 -55 -161 -71 -204 -150
-518 -151 -599 0 -21 -3 -23 -33 -17 -81 15 -382 152 -444 202 l-27 21 33 99
c65 192 140 358 243 534 76 128 69 124 131 81z m3824 -103 c36 -57 99 -168
139 -248 68 -136 154 -352 154 -385 0 -38 -514 -229 -700 -259 -15 -3 -18 10
-56 244 -11 73 -86 355 -120 456 -20 58 -34 107 -32 109 2 2 73 24 158 49 85
25 202 65 260 90 58 24 111 45 117 45 7 1 43 -45 80 -101z m-3312 -98 c102
-24 174 -38 336 -65 22 -4 130 -15 167 -18 14 0 15 -26 3 -82 -5 -22 -12 -62
-16 -89 -3 -27 -8 -52 -9 -55 -2 -3 -6 -36 -10 -73 -3 -36 -8 -81 -10 -100
-20 -153 -34 -304 -35 -377 l-1 -54 -72 7 c-95 9 -172 20 -403 62 -50 8 -338
83 -343 89 -7 6 23 160 60 315 29 121 109 376 142 452 15 35 18 37 44 27 15
-6 81 -23 147 -39z m2707 -108 c54 -162 118 -427 142 -587 2 -16 7 -48 11 -70
l6 -40 -143 -28 c-229 -44 -328 -59 -468 -72 -36 -3 -77 -8 -92 -11 -24 -4
-28 -1 -29 18 0 13 -2 30 -4 38 -1 9 -6 61 -9 117 -4 56 -9 112 -11 125 -2 12
-6 50 -9 83 -4 33 -9 80 -11 105 -5 41 -42 281 -50 322 -5 24 -1 25 85 32 41
4 84 9 95 11 11 3 38 7 60 10 130 18 180 27 265 44 52 11 102 19 109 18 10 -1
29 -45 53 -115z m-1972 3 c30 -2 159 -7 285 -10 127 -4 235 -8 241 -10 8 -2
11 -122 11 -419 l0 -415 -196 4 c-108 3 -230 7 -271 10 -41 2 -118 8 -170 11
-52 3 -106 8 -120 9 -14 2 -35 4 -48 4 -22 1 -23 3 -18 64 3 34 8 94 11 134 3
39 7 86 9 105 3 18 10 78 16 133 10 88 26 207 35 257 2 9 7 38 11 65 7 44 9
54 13 68 1 4 43 2 191 -10z m1281 -2 c0 -10 2 -25 4 -33 1 -8 6 -35 9 -60 4
-25 9 -52 11 -60 2 -8 7 -39 10 -69 4 -30 8 -62 10 -71 4 -22 14 -101 20 -170
3 -30 7 -73 10 -95 2 -22 7 -83 10 -135 4 -52 8 -99 8 -104 3 -15 -44 -23
-164 -30 -63 -4 -150 -9 -194 -12 -44 -2 -164 -6 -266 -9 l-186 -4 -1 420 -1
419 92 1 c159 1 528 17 534 23 2 1 23 3 48 5 37 2 45 -1 46 -16z m-3202 -192
c35 -53 121 -141 193 -195 l46 -36 -18 -62 c-11 -35 -21 -74 -24 -88 -2 -14
-13 -70 -24 -125 -37 -185 -58 -362 -66 -555 -2 -40 -14 -42 -81 -8 -122 61
-256 157 -298 212 -24 30 -24 33 -11 106 42 246 98 439 196 678 28 67 51 122
53 122 2 0 17 -22 34 -49z m5290 -292 c50 -147 100 -350 122 -492 14 -88 23
-72 -89 -153 -61 -45 -279 -159 -334 -175 l-28 -8 -1 62 c-1 34 -3 71 -4 82
-1 11 -5 54 -9 95 -7 80 -14 133 -20 166 -2 12 -7 45 -11 75 -3 30 -24 128
-46 218 -22 90 -39 164 -37 165 2 1 39 24 83 51 92 56 202 141 236 183 l24 28
33 -75 c18 -42 55 -142 81 -222z m-4984 20 c71 -48 298 -152 413 -189 45 -14
46 -15 33 -75 -5 -22 -12 -71 -15 -110 -4 -38 -8 -88 -11 -110 -10 -92 -15
-180 -21 -350 -3 -99 -7 -181 -9 -183 -8 -9 -309 77 -454 130 l-113 41 6 121
c4 67 8 133 11 146 2 14 6 49 9 79 3 29 10 79 15 110 6 31 13 74 16 95 11 79
60 289 72 309 7 11 15 9 48 -14z m4506 -26 c13 -34 66 -262 74 -318 3 -22 10
-62 15 -90 15 -82 30 -245 34 -362 l3 -62 -71 -25 c-198 -69 -499 -143 -726
-178 l-25 -4 -1 190 c0 172 -8 381 -18 461 -2 17 -7 60 -10 96 l-7 65 140 37
c168 44 363 113 486 172 50 24 91 44 93 44 1 1 7 -11 13 -26z m-3901 -219 c52
-13 104 -26 115 -28 11 -2 38 -9 60 -14 22 -6 58 -13 80 -16 22 -4 51 -8 65
-11 103 -21 181 -34 255 -41 39 -3 77 -8 85 -9 8 -2 19 -4 24 -4 4 -1 5 -61 2
-133 -6 -109 -16 -517 -16 -619 0 -24 -3 -27 -27 -24 -16 2 -82 9 -148 15 -66
6 -131 13 -145 15 -14 2 -45 6 -70 10 -50 6 -110 14 -155 21 -111 17 -301 57
-306 65 -3 6 -5 49 -3 97 5 165 15 369 19 393 2 13 6 53 9 89 6 66 17 152 22
180 1 8 3 23 3 34 1 13 6 16 19 11 9 -4 60 -18 112 -31z m3144 -31 c2 -10 7
-47 11 -83 3 -36 8 -85 10 -110 16 -165 24 -584 11 -597 -3 -4 -14 -8 -24 -9
-9 -1 -51 -7 -92 -13 -41 -6 -97 -13 -125 -16 -27 -3 -66 -8 -85 -10 -55 -7
-120 -14 -180 -20 -30 -2 -86 -7 -125 -10 -38 -4 -72 -7 -75 -7 -48 -3 -46
-14 -46 220 0 119 -3 294 -6 388 l-7 171 64 7 c172 18 392 51 540 82 61 12
113 23 117 23 4 1 9 -7 12 -16z m-2289 -108 c55 -4 125 -9 155 -11 30 -3 159
-7 285 -10 127 -3 235 -7 241 -9 7 -2 9 -121 8 -376 -1 -206 -2 -378 -3 -383
-1 -8 -492 -1 -591 9 -25 2 -89 6 -143 9 -54 2 -101 7 -104 10 -4 3 -6 45 -6
94 0 113 13 578 18 617 1 17 3 38 4 47 1 10 8 16 19 14 9 -2 62 -7 117 -11z
m1534 -13 c13 -651 13 -752 0 -756 -24 -8 -190 -15 -511 -22 l-308 -7 0 382
c0 296 3 383 13 386 6 2 120 6 252 9 132 4 263 8 290 11 28 2 90 6 139 9 49 3
91 8 94 10 9 9 31 -6 31 -22z m-3442 -330 c35 -23 103 -63 153 -88 85 -43 90
-47 90 -77 0 -86 10 -387 14 -422 3 -22 7 -69 11 -104 3 -35 7 -73 10 -85 2
-11 6 -35 9 -53 l4 -32 -61 30 c-139 70 -300 192 -358 272 -15 21 -31 38 -35
37 -25 -2 -20 532 5 649 1 2 22 -16 49 -41 26 -24 75 -63 109 -86z m5574 61
c0 -21 2 -51 5 -68 2 -16 5 -109 6 -205 2 -209 -8 -367 -32 -495 -6 -27 -12
-67 -16 -89 -39 -256 -167 -620 -315 -891 -63 -117 -174 -289 -219 -341 -100
-115 -349 -245 -629 -328 l-52 -15 68 77 c165 186 292 372 394 576 36 73 27
66 169 128 151 66 306 160 383 232 60 56 33 62 -31 7 -59 -50 -163 -120 -242
-160 -42 -22 -220 -101 -227 -101 -1 0 8 24 21 54 75 170 135 370 191 642 4
16 36 38 127 83 161 79 206 106 294 177 69 55 91 80 80 92 -3 2 -34 -21 -69
-52 -71 -62 -197 -140 -329 -204 -48 -23 -89 -42 -92 -42 -2 0 0 20 5 45 5 25
11 67 13 93 6 55 18 182 22 232 2 19 4 104 5 188 l1 153 26 11 c94 38 298 144
357 187 39 27 73 50 78 50 4 1 7 -16 8 -36z m-5180 -253 c84 -31 149 -50 334
-97 55 -14 103 -29 107 -32 4 -3 10 -73 13 -156 10 -232 18 -328 41 -478 9
-54 13 -101 10 -104 -14 -14 -368 93 -504 153 l-77 33 -11 78 c-23 158 -34
312 -36 473 -2 180 -1 182 21 171 10 -6 56 -24 102 -41z m4684 -155 c-3 -102
-8 -200 -10 -218 -2 -17 -6 -59 -9 -92 -5 -53 -17 -136 -22 -157 -1 -5 -2 -19
-3 -33 -1 -29 -14 -35 -206 -100 -189 -65 -616 -167 -631 -152 -3 3 2 54 10
114 9 59 18 137 22 173 3 36 7 75 9 88 4 25 18 250 19 317 l1 40 135 27 c74
15 151 30 170 34 64 11 293 73 400 108 58 19 109 35 113 35 5 1 6 -82 2 -184z
m-4041 -9 c125 -23 161 -29 259 -41 23 -3 53 -8 67 -10 26 -4 86 -11 175 -19
115 -11 180 -18 183 -20 1 -2 4 -77 7 -167 5 -161 8 -219 21 -409 10 -143 10
-175 -1 -173 -5 0 -41 4 -80 7 -38 3 -88 8 -110 11 -22 3 -60 7 -85 10 -65 8
-132 17 -155 21 -11 3 -63 11 -115 20 -52 8 -113 19 -135 24 -56 13 -108 22
-122 23 -14 0 -35 116 -49 262 -3 39 -8 79 -10 90 -2 10 -7 89 -10 174 -10
230 -10 235 12 227 9 -4 76 -17 148 -30z m3192 -148 c-4 -73 -9 -146 -11 -163
-3 -16 -7 -63 -10 -103 -4 -62 -27 -235 -40 -307 -2 -11 -4 -23 -4 -27 -1 -7
-28 -13 -91 -23 -19 -3 -46 -7 -60 -10 -14 -2 -43 -7 -65 -9 -22 -3 -78 -10
-125 -16 -121 -15 -146 -18 -230 -25 -41 -3 -94 -8 -118 -10 l-43 -4 5 37 c3
20 8 75 11 122 2 47 8 122 11 166 7 101 12 223 13 335 l1 87 63 6 c65 6 146
13 237 21 30 3 73 7 95 10 41 6 70 10 165 21 30 3 73 9 95 13 22 4 55 8 74 9
l34 3 -7 -133z m-2336 48 c140 -8 386 -17 547 -20 79 -1 146 -5 150 -9 5 -6 8
-533 4 -719 l-1 -27 -192 4 c-173 3 -401 13 -483 20 -16 2 -53 3 -81 4 -33 1
-51 5 -51 14 -1 17 -14 182 -18 237 -3 25 -7 133 -10 240 -4 107 -8 209 -9
227 -3 31 11 44 39 37 6 -2 53 -5 105 -8z m1554 -110 c-3 -114 -13 -320 -19
-391 -1 -22 -6 -85 -10 -140 -4 -55 -8 -101 -9 -102 -1 -2 -77 -8 -236 -18
-47 -3 -190 -8 -317 -10 -217 -5 -233 -4 -234 12 -3 61 2 727 6 731 3 3 80 6
172 8 170 2 557 14 560 17 1 1 21 3 46 3 l44 2 -3 -112z m-3412 -177 c40 -28
115 -73 166 -101 64 -34 94 -56 97 -71 3 -12 16 -71 29 -132 33 -148 88 -327
141 -457 23 -60 41 -108 38 -108 -2 0 -50 23 -106 50 -140 70 -251 146 -325
224 -35 36 -68 64 -73 60 -5 -3 -9 -3 -9 0 0 4 -20 72 -44 154 -47 157 -76
284 -101 450 -8 56 -15 105 -15 108 0 3 29 -24 65 -60 36 -36 98 -88 137 -117z
m4983 -195 c-3 -20 -7 -39 -9 -43 -2 -3 -7 -22 -10 -41 -21 -135 -146 -514
-193 -587 -28 -43 -489 -170 -755 -208 l-48 -7 16 43 c13 40 69 221 79 259 2
8 11 40 19 70 8 30 17 66 20 80 28 137 48 235 50 237 1 1 121 26 176 37 150
28 585 155 640 187 22 12 22 12 15 -27z m-4628 5 c113 -48 296 -106 459 -145
l60 -15 13 -62 c7 -34 15 -75 18 -92 11 -67 57 -229 108 -380 29 -88 52 -161
51 -163 -6 -6 -262 63 -390 105 -88 28 -147 53 -159 67 -52 58 -157 381 -222
684 -7 27 1 27 62 1z m628 -184 c100 -22 350 -63 420 -70 33 -3 67 -8 75 -10
8 -2 54 -7 101 -10 115 -9 152 -17 154 -35 2 -8 6 -46 9 -85 4 -38 9 -77 11
-85 2 -8 6 -37 10 -65 9 -76 16 -118 20 -135 3 -8 7 -33 10 -55 8 -51 34 -184
42 -209 5 -18 1 -19 -81 -12 -149 12 -305 32 -486 61 -52 9 -111 18 -131 21
-28 5 -38 13 -48 38 -31 79 -110 318 -124 376 -33 131 -65 290 -58 290 3 0 38
-7 76 -15z m3129 -87 c-7 -35 -15 -74 -17 -88 -3 -14 -12 -52 -21 -86 -8 -33
-17 -69 -19 -80 -8 -46 -103 -342 -115 -362 -5 -7 -28 -15 -53 -17 -24 -3 -55
-7 -69 -9 -14 -3 -45 -8 -70 -11 -25 -3 -61 -8 -80 -10 -19 -3 -64 -7 -100
-10 -62 -5 -103 -9 -216 -20 l-52 -5 8 37 c5 21 11 60 15 87 3 27 8 52 9 55 2
3 7 33 11 66 3 32 8 62 10 66 3 3 7 28 9 56 8 76 37 307 39 309 1 1 40 5 87 8
47 4 103 9 125 11 170 17 165 16 293 36 34 5 84 12 110 15 26 3 49 7 51 10 2
2 16 4 31 4 l27 0 -13 -62z m-2159 -33 c184 -11 253 -14 435 -16 l175 -2 1
-334 0 -335 -240 6 c-259 7 -408 14 -442 21 -18 4 -24 20 -43 117 -33 174 -62
360 -77 497 l-6 59 44 -3 c23 -2 93 -6 153 -10z m1411 -62 c-13 -136 -32 -282
-50 -383 -2 -14 -12 -69 -21 -122 l-17 -98 -37 -1 c-20 -1 -56 -3 -81 -5 -25
-1 -163 -6 -307 -10 l-263 -6 0 334 0 334 158 2 c151 2 435 12 439 15 1 1 43
3 93 5 l93 4 -7 -69z m-3181 -189 c47 -31 136 -80 198 -109 l112 -53 49 -94
c114 -217 228 -379 412 -587 18 -20 31 -37 30 -39 -6 -5 -185 62 -275 104
-177 83 -307 186 -402 319 -65 91 -162 258 -225 391 -53 110 -104 227 -104
237 0 2 27 -23 60 -55 32 -32 98 -83 145 -114z m715 -288 c74 -19 147 -36 161
-40 21 -4 32 -19 54 -73 65 -153 176 -343 289 -497 37 -49 64 -91 62 -93 -8
-8 -224 36 -377 77 -91 25 -362 366 -509 642 l-51 97 118 -40 c65 -22 179 -55
253 -73z m3814 42 c-121 -243 -414 -629 -499 -658 -34 -11 -279 -65 -340 -75
-177 -28 -265 -41 -265 -38 0 2 17 30 39 61 101 150 195 320 261 477 23 55 45
103 49 107 4 4 70 19 146 33 170 32 419 93 535 133 47 16 91 30 98 31 7 0 -2
-28 -24 -71z m-3294 -142 c58 -8 130 -17 160 -20 30 -3 84 -9 120 -12 36 -4
76 -8 90 -9 14 -2 32 -3 40 -4 11 -1 22 -29 38 -91 35 -136 98 -328 142 -435
22 -52 40 -96 40 -98 0 -5 -180 8 -253 18 -18 2 -59 7 -92 10 -33 3 -73 8 -90
10 -16 3 -43 7 -60 10 -71 10 -272 304 -403 587 l-39 84 101 -17 c56 -10 148
-24 206 -33z m2500 5 c0 -18 -72 -178 -132 -292 -33 -64 -95 -168 -137 -230
-85 -126 -76 -121 -216 -133 -39 -3 -89 -8 -111 -11 -21 -3 -76 -7 -120 -9
l-82 -4 8 27 c5 14 22 67 38 116 45 133 68 216 101 353 16 68 31 125 33 127 1
1 41 6 88 9 47 4 103 9 125 11 134 13 169 18 255 29 120 17 150 18 150 7z
m-1775 -66 c94 -4 225 -8 293 -9 67 -2 124 -5 126 -7 2 -2 6 -141 8 -308 l3
-303 -135 2 c-74 1 -166 3 -205 5 -38 1 -89 3 -111 4 l-42 1 -41 98 c-49 118
-103 279 -141 424 l-29 109 52 -5 c29 -3 129 -8 222 -11z m1117 -26 c-9 -93
-145 -556 -172 -583 -5 -5 -105 -11 -222 -13 -117 -2 -223 -5 -235 -7 -12 -2
-24 2 -26 8 -2 6 -5 79 -6 161 -2 83 -4 216 -6 298 -2 106 0 147 8 148 7 1 68
2 137 4 229 6 484 16 488 19 2 2 11 3 20 1 13 -2 16 -10 14 -36z m1597 -211
c-87 -112 -397 -412 -419 -405 -3 1 -24 -16 -47 -37 -60 -56 -235 -171 -328
-216 -114 -55 -331 -124 -485 -154 -31 -6 -96 -18 -120 -22 -14 -2 -41 -7 -60
-10 -19 -3 -46 -8 -60 -10 -14 -2 49 33 140 79 235 119 324 174 500 308 63 48
149 119 190 158 73 68 78 71 205 111 193 62 343 128 450 199 33 22 62 40 63
40 2 1 -11 -18 -29 -41z m-4281 -50 c88 -54 177 -94 328 -147 125 -44 136 -50
210 -116 218 -197 442 -346 723 -481 55 -27 101 -52 101 -55 0 -8 -222 35
-342 65 -51 13 -133 39 -181 56 -151 55 -445 245 -501 323 -18 25 -33 36 -43
33 -24 -10 -213 167 -374 349 -38 43 -40 47 -14 30 17 -10 58 -36 93 -57z
m3575 -241 c-108 -98 -212 -178 -343 -265 -226 -151 -546 -307 -648 -317 -92
-9 -142 -13 -142 -10 0 1 26 19 58 40 141 94 372 308 466 432 36 48 41 51 95
57 115 13 414 67 496 89 28 8 52 13 53 11 2 -1 -13 -18 -35 -37z m-2978 14
c22 -6 56 -13 75 -16 19 -3 51 -10 70 -15 19 -4 68 -14 109 -20 72 -12 75 -14
130 -72 172 -185 337 -320 540 -440 l66 -40 -52 6 c-78 9 -316 118 -518 238
-153 90 -337 225 -445 325 -19 18 -38 33 -42 33 -5 0 -8 5 -8 11 0 6 8 8 18 5
9 -3 35 -9 57 -15z m475 -85 c19 -3 67 -8 105 -11 39 -4 81 -8 95 -10 14 -2
66 -7 115 -10 104 -7 95 0 166 -135 52 -100 149 -241 209 -307 53 -57 55 -61
17 -57 -17 2 -56 5 -85 8 -111 10 -406 209 -607 411 -50 49 -97 98 -105 108
-13 17 -12 18 21 13 19 -3 50 -8 69 -10z m1869 -38 c-85 -122 -306 -323 -487
-443 -61 -41 -75 -46 -135 -48 l-66 -4 34 46 c60 78 125 191 189 324 l61 127
55 1 c30 0 69 2 85 3 17 2 71 7 120 11 50 4 91 8 92 9 1 1 19 3 39 4 l36 3
-23 -33z m-1150 -12 c112 -3 206 -7 207 -9 2 -2 6 -61 9 -133 2 -71 7 -177 11
-237 l6 -108 -83 2 -84 1 -62 63 c-65 68 -165 212 -232 335 -50 92 -51 100 -8
95 17 -2 124 -7 236 -9z m700 -24 c-44 -118 -188 -362 -252 -429 -30 -32 -34
-33 -108 -33 -94 0 -86 -20 -95 239 -3 101 -7 197 -8 212 -2 26 1 29 28 30 17
0 118 2 225 5 107 2 197 6 199 9 13 13 20 -9 11 -33z m760 -346 c-2 -2 -54
-25 -114 -49 -250 -103 -570 -177 -830 -192 -67 -4 -74 -3 -45 6 19 6 118 37
220 69 102 33 210 62 240 65 101 10 284 44 395 73 110 29 142 36 134 28z
m-2169 -42 c80 -19 97 -23 135 -29 17 -3 53 -10 80 -15 28 -5 77 -12 110 -16
33 -4 110 -24 170 -45 61 -22 144 -49 185 -60 41 -12 78 -24 83 -28 8 -8 -176
12 -223 24 -8 2 -31 6 -51 9 -113 17 -300 69 -459 128 -140 53 -147 60 -30 32z
m1433 -85 c-9 -9 -238 -79 -256 -79 -33 1 134 73 178 77 28 3 51 6 53 7 7 7
31 2 25 -5z m-828 -19 c52 -24 25 -24 -40 0 -35 13 -43 18 -25 18 14 1 43 -8
65 -18z m185 -16 c15 -14 35 -31 46 -39 10 -8 15 -15 11 -15 -11 0 -191 70
-199 78 -4 4 20 5 54 4 47 -3 66 -9 88 -28z m151 22 c7 -6 8 -96 1 -96 -8 0
-52 27 -109 69 -12 9 -23 19 -23 23 0 6 125 9 131 4z m134 -33 c-22 -19 -52
-43 -66 -54 l-27 -19 -6 45 c-4 25 -5 49 -2 53 2 4 35 8 72 8 l68 1 -39 -34z
m125 13 c-25 -12 -66 -30 -90 -39 l-45 -18 42 41 c38 36 47 40 90 39 l48 0
-45 -23z"/>
</g>
</svg>
